<svg width="118" height="32" viewBox="0 0 118 32" fill="none" xmlns="http://www.w3.org/2000/svg">
<path d="M48.4595 17.1204C48.4917 18.2166 48.0887 19.1355 47.2343 19.8932C46.3799 20.6509 45.3804 21.0378 44.2197 21.0378C42.7365 21.0378 41.3985 20.4252 40.2217 19.1839L41.6887 17.3944C42.4464 18.2488 43.2202 18.6841 44.0101 18.7163C44.4131 18.7325 44.7517 18.6357 45.058 18.4584C45.4287 18.2005 45.6383 17.8136 45.6705 17.2977C45.7028 16.669 45.332 16.1692 44.5421 15.7823L42.6882 14.8957C41.3663 14.267 40.7053 13.1869 40.6731 11.6554C40.6569 10.6075 41.0438 9.737 41.866 9.0438C42.6398 8.38284 43.5587 8.06042 44.6227 8.06042C45.9124 8.06042 47.1214 8.56017 48.2177 9.52743L46.6862 11.1395C46.2187 10.7365 45.9285 10.5108 45.8156 10.4302C45.4771 10.2206 45.0902 10.1078 44.6872 10.1078C44.268 10.1078 43.9456 10.2367 43.6716 10.4786C43.4136 10.7204 43.2847 11.0589 43.2847 11.4942C43.2847 12.0907 43.6232 12.542 44.3003 12.8483L46.2831 13.7511C47.6857 14.4604 48.4111 15.5566 48.4595 17.1204Z" fill="white"/>
<path d="M59.083 12.6388L53.9082 23.9395H51.3934L53.1667 20.1027L49.7168 12.6388H52.4251L54.4563 17.2977L56.4715 12.6388H59.083Z" fill="white"/>
<path d="M65.8052 20.3123C65.0637 20.6831 64.3866 20.8604 63.7579 20.8604C62.581 20.8604 61.5654 20.4413 60.7271 19.6191C59.8727 18.7969 59.4697 17.7974 59.4858 16.6529C59.5019 15.4922 59.9211 14.5088 60.7594 13.6866C61.5815 12.8644 62.5649 12.4614 63.7095 12.4614C64.2899 12.4614 64.9669 12.6226 65.7085 12.9451V14.9763C65.4828 14.8796 65.241 14.799 65.0153 14.7184C64.6445 14.5894 64.3382 14.5249 64.0642 14.541C63.4354 14.541 62.9518 14.7506 62.581 15.1536C62.2103 15.5566 62.0329 16.0403 62.0329 16.6206C62.0329 17.201 62.2264 17.6846 62.581 18.0715C62.9679 18.4745 63.4677 18.6841 64.0803 18.6841C64.6445 18.6841 65.2249 18.4745 65.8213 18.0715V20.3123H65.8052Z" fill="white"/>
<path d="M76.2518 20.7315H73.8175V19.9738C73.1082 20.6347 72.2699 20.9894 71.3349 21.0055C70.2387 21.0377 69.3037 20.6186 68.546 19.7803C67.7883 18.9582 67.4014 17.9748 67.3853 16.8302C67.3692 15.6695 67.7238 14.6539 68.4654 13.7833C69.2392 12.8967 70.1742 12.4614 71.2866 12.4775C72.2538 12.4937 73.1405 12.8483 73.9304 13.5738V12.6549H76.2518V20.7315ZM74.0271 16.7173C74.0271 16.137 73.8175 15.6372 73.4145 15.2181C73.0115 14.799 72.5117 14.6055 71.9153 14.6216C71.3027 14.6377 70.819 14.8473 70.4321 15.2665C70.0614 15.6695 69.8679 16.1692 69.8518 16.7496C69.8357 17.3299 70.0452 17.8136 70.4644 18.2166C70.8835 18.6196 71.3833 18.8292 71.9475 18.8453C72.5117 18.8453 73.0115 18.6357 73.4145 18.2166C73.8337 17.7974 74.0271 17.2977 74.0271 16.7173Z" fill="white"/>
<path d="M90.3418 20.7314H87.9075V16.1047C87.9075 15.1052 87.4723 14.6055 86.6179 14.6055C86.2471 14.6055 85.9408 14.7506 85.699 15.0246C85.4572 15.3148 85.3443 15.6695 85.3443 16.1047V20.7314H82.8939V16.1853C82.8939 15.1859 82.5393 14.6861 81.83 14.67C81.4431 14.6539 81.1045 14.8151 80.8143 15.1375C80.5242 15.4599 80.3791 15.8307 80.3791 16.2176V20.7314H77.9287V12.6388H80.363V13.6544C80.7499 13.2352 81.0723 12.9612 81.298 12.8322C81.6204 12.6388 82.0395 12.542 82.5232 12.542C83.2486 12.542 83.8128 12.671 84.1997 12.9128C84.3932 13.0418 84.6995 13.3481 85.1025 13.8317C85.6829 12.8644 86.5373 12.4131 87.6657 12.4614C88.5363 12.4937 89.2133 12.8161 89.697 13.4126C90.1484 13.9768 90.3741 14.67 90.3741 15.5083V20.7314H90.3418Z" fill="white"/>
<path d="M100.9 16.7657C100.9 18.007 100.449 19.0388 99.5622 19.877C98.6756 20.6992 97.5955 21.1184 96.3381 21.1184C95.1129 21.1184 94.0489 20.6831 93.1784 19.8126C92.2917 18.942 91.8564 17.8942 91.8564 16.6851C91.8564 15.4599 92.324 14.4443 93.2428 13.5899C94.1456 12.7516 95.2257 12.3325 96.4831 12.3325C97.6922 12.3325 98.7239 12.7677 99.5945 13.6383C100.481 14.5088 100.916 15.5405 100.9 16.7657ZM98.4499 16.7173C98.4177 16.1048 98.192 15.605 97.7889 15.202C97.3859 14.799 96.9023 14.6055 96.3219 14.6378C95.7738 14.6539 95.3063 14.8796 94.9194 15.2826C94.5325 15.7017 94.3552 16.1854 94.3713 16.7335C94.3874 17.2977 94.597 17.7652 94.9839 18.1682C95.3708 18.5713 95.8544 18.7647 96.4025 18.7647C96.9668 18.7647 97.4665 18.5551 97.8695 18.1521C98.2887 17.7491 98.4821 17.2655 98.4499 16.7173Z" fill="white"/>
<path d="M107.881 14.7667C107.655 14.7184 107.413 14.7022 107.172 14.7022C106.623 14.7022 106.204 14.8151 105.914 15.0408C105.414 15.4277 105.156 16.008 105.156 16.7496V20.7476H102.706V12.6549H105.156V13.7511C105.511 13.2675 105.914 12.9289 106.365 12.7033C106.849 12.4776 107.349 12.3808 107.897 12.397V14.7667H107.881Z" fill="white"/>
<path d="M117.569 17.2171H111.766C111.83 17.7007 112.04 18.0876 112.362 18.3939C112.701 18.7002 113.12 18.8453 113.62 18.8453C114.361 18.8453 114.974 18.41 115.458 17.5395L117.231 18.7002C116.247 20.1995 115.006 20.9249 113.539 20.8927C112.298 20.8604 111.282 20.409 110.476 19.5224C109.686 18.6519 109.315 17.604 109.332 16.3949C109.348 15.2503 109.702 14.3153 110.396 13.5576C111.137 12.7516 112.104 12.3325 113.33 12.3325C114.651 12.3325 115.699 12.7516 116.457 13.5899C117.247 14.4604 117.618 15.6695 117.569 17.2171ZM114.99 15.6534C114.926 14.6377 114.394 14.138 113.378 14.1219C112.91 14.1219 112.524 14.2831 112.217 14.6216C111.943 14.9279 111.782 15.2665 111.766 15.6695H114.99V15.6534Z" fill="white"/>
<path d="M21.0545 13.4771H8.86712C7.2389 13.4771 5.91699 12.1552 5.91699 10.527V8.86651C5.91699 7.23829 7.2389 5.91638 8.86712 5.91638H18.0883C19.7165 5.91638 21.0384 7.23829 21.0384 8.86651V13.4771H21.0545Z" fill="white"/>
<path d="M23.1498 26.0836H13.9286C12.3004 26.0836 10.9785 24.7617 10.9785 23.1335V18.5229H23.1659C24.7941 18.5229 26.116 19.8448 26.116 21.473V23.1335C26.0999 24.7617 24.778 26.0836 23.1498 26.0836Z" fill="white"/>
<path d="M26.0998 0H5.98086C2.69219 0 0 2.67607 0 5.98086V26.0998C0 26.5834 0.386901 26.9703 0.870528 26.9703C1.35416 26.9703 1.74106 26.5834 1.74106 26.0998V6.4806C1.74106 3.8529 3.86902 1.72494 6.49673 1.72494H26.0836C26.5673 1.72494 26.9542 1.33804 26.9542 0.854409C26.9703 0.386902 26.5834 0 26.0998 0Z" fill="white"/>
<path d="M31.1456 5.02972C30.662 5.02972 30.2751 5.41662 30.2751 5.90025V25.5033C30.2751 28.131 28.1472 30.2589 25.5195 30.2589H5.91643C5.4328 30.2589 5.0459 30.6458 5.0459 31.1295C5.0459 31.6131 5.4328 32 5.91643 32H26.0353C29.324 32 32.0162 29.3239 32.0162 26.0191V5.90025C32.0162 5.43275 31.6293 5.02972 31.1456 5.02972Z" fill="white"/>
</svg>
